<?xml version="1.0" standalone="no"?>
<!DOCTYPE svg PUBLIC "-//W3C//DTD SVG 20010904//EN"
 "http://www.w3.org/TR/2001/REC-SVG-20010904/DTD/svg10.dtd">
<svg version="1.0" xmlns="http://www.w3.org/2000/svg"
 width="1624.000000pt" height="1624.000000pt" viewBox="0 0 1624.000000 1624.000000"
 preserveAspectRatio="xMidYMid meet">
<metadata>
Created by potrace 1.14, written by Peter Selinger 2001-2017
</metadata>
<g transform="translate(0.000000,1624.000000) scale(0.100000,-0.100000)"
fill="#000000" stroke="none">
<path d="M7529 16236 c-2 -2 -31 -7 -64 -11 -142 -15 -381 -58 -565 -100 -543
-123 -1162 -385 -1665 -705 -386 -245 -793 -590 -1090 -926 -38 -43 -72 -81
-75 -84 -3 -3 -25 -30 -50 -60 -25 -30 -47 -57 -51 -60 -15 -12 -173 -227
-250 -340 -197 -287 -374 -616 -504 -936 -20 -49 -42 -102 -49 -119 -48 -110
-190 -593 -211 -714 -3 -19 -8 -37 -10 -40 -2 -4 -6 -27 -10 -51 -3 -25 -10
-63 -15 -86 -5 -22 -12 -61 -15 -85 -3 -24 -7 -55 -10 -69 -6 -33 -14 -89 -30
-230 -13 -114 -14 -946 -2 -1015 3 -16 9 -55 12 -85 12 -101 15 -124 30 -209
13 -73 13 -85 -1 -98 -57 -57 -68 -153 -30 -251 14 -34 22 -62 20 -62 -3 0 0
-9 6 -20 9 -17 85 -250 95 -290 2 -8 17 -62 35 -120 30 -103 36 -123 44 -158
3 -9 19 -71 36 -137 18 -66 36 -136 40 -155 43 -184 79 -341 91 -400 6 -30 23
-98 36 -150 14 -52 26 -99 28 -105 1 -5 6 -19 10 -30 5 -11 17 -42 27 -70 20
-51 154 -312 193 -375 12 -19 25 -42 28 -50 8 -18 232 -390 244 -405 4 -6 17
-28 28 -50 11 -22 22 -42 25 -45 3 -3 37 -70 77 -150 86 -176 163 -380 188
-501 35 -168 78 -243 177 -308 90 -60 267 -145 378 -181 270 -89 474 -184 715
-333 165 -102 380 -277 448 -366 74 -95 148 -250 172 -359 3 -12 7 -32 10 -44
14 -63 18 -173 11 -318 -4 -82 -8 -137 -21 -270 -4 -47 -17 -165 -20 -181 -2
-9 -6 -40 -10 -70 -3 -30 -8 -61 -10 -69 -2 -8 -7 -33 -10 -55 -3 -23 -8 -52
-10 -65 -3 -14 -12 -59 -20 -100 -20 -102 -21 -109 -35 -160 -7 -25 -14 -53
-16 -64 -19 -99 -102 -339 -163 -470 -22 -49 -41 -90 -41 -91 0 -1 468 -2
1040 -2 572 0 1040 3 1040 6 0 3 -9 44 -19 91 -10 47 -19 92 -19 100 -1 8 -6
38 -12 65 -6 28 -13 66 -16 85 -3 19 -12 73 -20 119 -8 46 -17 109 -20 139 -3
30 -8 65 -10 76 -4 22 -10 67 -19 156 -3 30 -8 73 -10 95 -23 218 -28 277 -41
555 -13 260 -7 690 10 775 2 12 7 52 11 90 3 38 8 72 10 75 2 3 6 30 10 60 3
30 8 62 10 70 5 20 14 81 30 205 17 134 17 350 -1 458 -19 117 -76 289 -122
367 -69 118 -201 234 -349 309 -60 30 -182 79 -213 86 -8 2 -51 12 -95 23 -90
23 -160 32 -285 37 -47 1 -85 3 -85 4 0 1 -22 4 -50 5 -95 7 -271 47 -381 87
-85 31 -303 138 -324 159 -3 3 -28 21 -56 40 -97 66 -248 208 -323 302 -38 48
-179 188 -231 230 -136 108 -418 271 -583 338 -57 22 -154 30 -217 17 -131
-26 -234 -145 -224 -258 6 -70 18 -110 56 -184 94 -181 343 -432 566 -571 92
-57 110 -70 219 -162 142 -121 608 -468 710 -528 19 -12 38 -26 42 -31 3 -5
20 -18 37 -28 18 -10 39 -34 49 -54 55 -117 196 -289 287 -350 31 -21 45 -36
42 -46 -8 -20 -13 -19 -59 11 -94 62 -200 186 -284 331 -30 52 -52 78 -81 94
-22 13 -40 26 -40 31 0 4 -4 8 -10 8 -5 0 -18 7 -27 14 -10 8 -83 61 -163 118
-292 208 -530 392 -530 409 0 5 -6 9 -12 9 -7 0 -35 20 -62 45 -26 25 -50 45
-53 45 -2 0 -29 16 -59 35 -30 19 -56 35 -59 35 -3 -1 -12 5 -19 12 -8 7 -26
22 -42 33 -76 54 -137 106 -217 184 -91 88 -227 250 -227 270 0 6 -4 11 -8 11
-12 0 -70 129 -84 190 -20 81 -8 167 32 224 17 25 37 49 45 54 20 10 -50 83
-152 159 -40 30 -73 57 -74 61 -6 74 -13 118 -25 167 -9 33 -17 67 -19 75 -5
28 -89 265 -102 290 -7 14 -13 28 -13 31 0 4 -12 33 -27 65 -15 33 -28 61 -28
64 -2 9 -40 85 -45 90 -3 3 -16 25 -29 50 -14 25 -27 47 -31 50 -3 3 -12 25
-18 50 -7 25 -17 54 -22 65 -18 42 -50 149 -45 153 3 3 5 0 5 -6 0 -7 5 -12
11 -12 5 0 8 4 4 9 -3 5 -1 13 5 16 6 4 10 3 9 -2 -1 -4 3 -21 9 -36 7 -16 12
-34 12 -42 0 -8 4 -17 10 -20 6 -3 10 -17 10 -30 0 -13 4 -27 10 -30 6 -3 10
-15 10 -25 0 -10 17 -49 37 -87 93 -172 206 -426 206 -460 0 -7 5 -13 10 -13
6 0 8 -3 4 -6 -3 -4 0 -21 8 -40 14 -33 50 -161 59 -205 2 -13 7 -35 10 -49 3
-14 8 -42 10 -62 5 -45 12 -58 32 -58 8 0 14 -4 14 -9 0 -5 8 -12 19 -16 10
-3 52 -38 94 -78 64 -62 78 -71 96 -63 12 5 21 14 21 20 0 19 -139 198 -209
268 -36 36 -67 77 -69 90 -2 12 -7 32 -11 43 -27 66 -41 132 -46 220 -3 55
-11 127 -16 160 -6 33 -12 74 -14 90 -1 17 -4 30 -5 30 -2 0 -6 16 -14 61 -5
26 -49 186 -60 219 -2 6 -4 13 -5 17 -1 4 -15 38 -30 75 -27 62 -29 77 -27
173 3 93 -11 236 -29 310 -3 14 -8 36 -11 50 -9 48 -45 170 -69 235 -35 98
-81 175 -137 227 -57 54 -114 76 -186 74 -27 0 -48 2 -45 6 2 5 11 8 19 8 8 0
14 4 14 8 0 5 6 9 13 10 22 2 88 20 94 26 3 3 5 41 3 83 -7 191 1 540 14 609
2 11 7 55 10 99 4 44 9 87 11 95 2 8 7 40 10 70 4 30 8 57 10 60 2 3 6 26 10
50 3 25 13 79 22 120 8 41 16 83 18 92 14 69 83 308 123 428 99 292 192 500
364 810 41 74 137 224 215 337 380 546 908 1032 1488 1368 116 67 375 201 455
234 30 13 73 31 95 41 265 118 732 258 1015 305 19 3 61 10 92 16 32 5 79 12
105 15 27 2 59 6 73 9 245 39 810 50 1055 21 17 -2 59 -7 95 -11 36 -3 76 -8
90 -10 14 -1 50 -6 80 -9 30 -4 62 -9 70 -11 8 -3 35 -7 60 -10 25 -3 52 -7
60 -10 8 -2 31 -7 50 -10 19 -3 43 -8 52 -11 20 -6 51 -12 97 -20 66 -11 417
-113 541 -157 398 -142 784 -338 1115 -565 61 -42 115 -80 120 -84 6 -4 56
-44 113 -87 597 -458 1100 -1101 1403 -1795 150 -342 281 -792 324 -1116 20
-152 25 -194 40 -386 13 -147 6 -642 -8 -649 -62 -28 -145 -123 -182 -211 -19
-44 -64 -174 -70 -202 -2 -9 -13 -53 -25 -97 -11 -44 -22 -96 -25 -115 -19
-144 -23 -232 -15 -299 4 -34 0 -59 -16 -96 -25 -59 -36 -86 -39 -100 -2 -5
-14 -46 -29 -90 -14 -44 -28 -91 -30 -105 -3 -14 -5 -25 -6 -25 -1 0 -3 -9 -4
-20 -2 -11 -8 -45 -14 -75 -19 -92 -32 -201 -37 -290 -3 -57 -12 -108 -29
-155 -14 -38 -26 -78 -26 -87 0 -10 -24 -41 -53 -70 -63 -64 -140 -154 -192
-227 l-39 -54 23 -18 c23 -19 23 -18 70 29 60 60 96 90 147 124 33 23 40 34
42 65 2 21 7 52 11 68 5 17 12 48 16 70 22 135 185 540 272 678 21 33 51 106
63 152 1 6 6 20 11 33 5 13 9 27 9 32 0 5 25 71 55 147 55 135 124 274 151
301 8 7 14 17 14 21 0 15 104 112 145 137 35 20 45 32 54 70 11 45 16 46 49
19 26 -21 72 -70 72 -77 0 -7 -26 -9 -75 -8 -3 0 -28 -12 -57 -26 -106 -54
-200 -177 -285 -374 -33 -75 -124 -324 -137 -375 -6 -23 -21 -52 -44 -85 -33
-49 -127 -247 -124 -262 1 -5 -3 -8 -10 -8 -6 0 -9 -3 -5 -6 3 -3 -10 -41 -28
-85 -19 -44 -34 -83 -35 -87 0 -4 -11 -43 -24 -87 -40 -131 -53 -187 -61 -270
-2 -24 -11 -44 -21 -50 -32 -19 -159 -122 -188 -153 l-29 -31 37 -42 c20 -24
41 -61 48 -83 13 -48 13 -136 0 -187 -35 -137 -212 -371 -401 -529 -29 -25
-59 -50 -65 -56 -18 -17 -167 -119 -216 -147 -25 -14 -56 -36 -70 -49 -32 -30
-147 -126 -185 -155 -53 -40 -109 -84 -140 -108 -29 -22 -295 -217 -332 -243
-62 -43 -161 -114 -178 -128 -11 -9 -30 -21 -43 -27 -13 -6 -33 -29 -44 -51
-47 -92 -143 -222 -219 -296 -34 -33 -86 -70 -98 -70 -5 0 -12 -6 -15 -12 -3
-9 -9 -7 -21 7 -14 18 -13 20 19 37 47 24 138 109 183 171 20 29 40 54 44 57
3 3 8 10 10 15 20 49 99 161 128 181 64 42 423 298 451 320 8 7 38 29 65 50
109 82 221 168 237 183 9 9 29 26 45 38 16 12 45 37 64 55 36 34 63 53 89 65
21 9 150 94 179 118 319 263 496 510 486 682 -6 106 -63 179 -174 223 -87 34
-201 31 -286 -9 -73 -33 -249 -123 -293 -149 -29 -18 -55 -32 -58 -32 -3 0
-10 -5 -17 -10 -7 -6 -59 -43 -117 -84 -115 -81 -215 -173 -306 -281 -208
-247 -441 -411 -723 -509 -95 -33 -121 -41 -176 -51 -11 -2 -45 -9 -75 -15
-80 -15 -112 -18 -245 -25 -66 -3 -136 -8 -155 -11 -19 -3 -50 -7 -69 -10 -81
-11 -238 -63 -348 -115 -145 -69 -278 -175 -340 -272 -15 -23 -30 -44 -33 -47
-22 -19 -118 -287 -112 -312 1 -3 -5 -39 -12 -78 -14 -69 -15 -313 -3 -400 3
-19 8 -57 11 -85 3 -27 8 -61 10 -75 3 -14 10 -59 16 -100 6 -41 13 -86 15
-99 3 -13 7 -45 11 -70 3 -25 8 -57 10 -71 25 -159 25 -759 -1 -1060 -18 -213
-19 -231 -30 -335 -22 -203 -25 -230 -30 -255 -3 -14 -7 -41 -9 -60 -4 -35
-34 -226 -41 -265 -2 -11 -8 -41 -13 -67 -5 -27 -7 -48 -4 -48 2 0 -1 -7 -8
-15 -7 -9 -10 -18 -8 -21 3 -3 -2 -41 -12 -84 -16 -73 -16 -80 -1 -84 21 -6
2061 -5 2061 1 0 3 -14 35 -31 71 -58 125 -132 330 -158 437 -8 33 -49 205
-67 280 -3 11 -7 36 -9 55 -3 19 -7 46 -10 60 -3 14 -8 41 -11 60 -3 19 -9 60
-14 90 -5 30 -11 80 -15 111 -3 31 -7 65 -9 75 -2 11 -7 55 -10 99 -4 44 -9
109 -13 145 -3 36 -6 100 -7 142 -1 43 -5 78 -9 78 -5 0 -6 4 -2 9 3 5 8 49
11 97 3 49 8 92 10 96 3 5 7 21 10 36 16 93 76 232 146 335 41 60 139 163 197
207 19 14 42 32 52 41 10 9 65 47 121 85 57 38 104 72 106 77 2 4 7 7 12 7 5
0 44 21 87 46 173 103 400 205 588 264 128 41 342 144 423 204 85 63 114 113
147 249 77 316 180 542 462 1012 147 246 192 325 270 476 38 72 70 145 72 162
0 4 7 20 14 35 13 24 79 276 91 345 3 15 7 35 10 45 3 9 7 33 10 52 3 19 30
134 61 255 30 121 57 228 60 238 2 9 6 21 9 25 3 5 7 19 9 33 8 40 25 101 80
277 l52 167 3 1145 c2 855 0 1160 -9 1205 -59 299 -201 751 -304 973 -14 29
-25 54 -25 57 0 2 -30 66 -66 142 -539 1122 -1484 2026 -2649 2533 -66 28
-149 63 -185 77 -87 33 -311 114 -330 118 -8 2 -71 20 -140 40 -188 54 -448
115 -557 130 -21 3 -60 10 -88 15 -27 6 -75 13 -105 16 -30 3 -75 10 -100 14
-43 9 -1293 14 -1301 6z m-4411 -5672 c-4 -3 3 -38 14 -77 11 -40 21 -76 22
-82 2 -5 5 -17 8 -25 3 -8 11 -34 17 -58 9 -33 19 -45 44 -56 47 -19 145 -123
194 -205 53 -89 122 -248 118 -272 -2 -9 3 -20 11 -23 9 -3 13 -10 9 -15 -3
-6 -12 -8 -20 -5 -8 4 -13 10 -10 14 3 4 -1 10 -9 13 -7 3 -17 18 -20 34 -14
56 -116 249 -163 308 -93 115 -181 162 -287 153 -47 -4 -53 -3 -38 8 9 8 21
14 26 14 5 0 17 7 27 16 9 8 26 16 38 17 21 1 21 13 1 72 -5 17 -6 58 -1 150
0 14 6 25 13 25 6 0 9 -3 6 -6z"/>
<path d="M11225 13570 c-44 -10 -120 -33 -170 -50 -49 -17 -94 -33 -100 -34
-5 -2 -19 -6 -30 -10 -11 -5 -42 -16 -70 -26 -27 -10 -59 -22 -70 -26 -11 -4
-23 -8 -27 -9 -5 -2 -10 -4 -13 -5 -3 -1 -9 -4 -15 -5 -5 -1 -12 -4 -15 -5 -3
-1 -8 -3 -12 -4 -5 -1 -33 -14 -64 -29 -31 -15 -61 -27 -67 -27 -7 0 -12 -5
-12 -11 0 -5 -4 -7 -10 -4 -5 3 -10 2 -10 -2 0 -5 -20 -17 -45 -27 -25 -11
-45 -23 -45 -28 0 -4 -6 -8 -14 -8 -8 0 -16 -4 -18 -9 -1 -5 -10 -11 -18 -13
-8 -2 -17 -6 -20 -9 -3 -4 -50 -37 -104 -74 -55 -37 -104 -72 -110 -76 -6 -5
-27 -23 -46 -39 -19 -16 -39 -30 -43 -30 -4 0 -18 -10 -30 -23 -12 -12 -44
-40 -72 -62 -54 -43 -80 -65 -128 -108 -36 -32 -52 -30 -52 6 1 22 -6 29 -32
38 -47 15 -103 8 -143 -18 -19 -13 -39 -23 -45 -23 -5 0 -25 -14 -44 -30 -18
-17 -30 -30 -25 -30 4 0 -1 -6 -11 -14 -11 -8 -25 -12 -32 -9 -14 5 -18 33 -5
33 4 0 8 11 8 24 2 22 -8 28 -100 62 -151 56 -231 80 -296 91 -19 3 -43 9 -52
14 -20 11 -75 11 -102 0 -12 -5 -31 -2 -48 7 -31 15 -112 35 -193 47 -27 5
-59 9 -70 11 -11 2 -96 5 -190 7 -189 4 -292 -2 -477 -29 -24 -4 -49 -7 -55
-7 -7 0 -13 -4 -13 -9 0 -4 -6 -8 -12 -8 -7 0 -28 -13 -46 -28 -31 -27 -37
-28 -78 -19 -41 10 -63 7 -169 -19 -69 -17 -338 -97 -375 -111 -8 -4 -18 -7
-22 -8 -5 -2 -10 -4 -13 -5 -3 -1 -8 -3 -12 -5 -5 -1 -17 -5 -28 -10 -11 -4
-56 -21 -100 -38 -44 -16 -99 -38 -122 -48 -23 -11 -47 -19 -52 -19 -6 0 -11
-4 -11 -10 0 -5 -4 -9 -8 -7 -10 3 -115 -45 -123 -56 -3 -5 -8 -8 -10 -6 -7 4
-85 -39 -98 -55 -7 -9 -17 -13 -23 -10 -12 8 -108 -27 -108 -40 0 -5 -2 -7 -6
-4 -7 7 -206 -90 -216 -106 -4 -6 -8 -7 -8 -3 0 5 -13 -1 -30 -13 -16 -12 -30
-18 -30 -15 0 4 -12 -3 -26 -14 -15 -12 -32 -21 -40 -21 -7 0 -14 -3 -16 -8
-1 -4 -35 -27 -75 -50 -40 -24 -77 -50 -84 -58 -6 -8 -17 -14 -25 -14 -7 0
-26 -17 -41 -37 -35 -47 -41 -52 -63 -46 -16 4 -76 -21 -90 -38 -3 -3 -31 -22
-63 -43 -33 -20 -64 -41 -70 -46 -57 -46 -76 -60 -82 -60 -4 0 -22 -15 -40
-34 -18 -19 -35 -33 -37 -30 -3 2 -55 -48 -117 -111 -96 -98 -113 -120 -114
-149 -2 -28 -8 -37 -34 -50 -27 -13 -68 -57 -152 -162 -9 -11 -17 -27 -19 -34
-2 -7 -12 -26 -23 -42 -11 -15 -17 -28 -13 -28 3 0 1 -6 -5 -13 -13 -17 -2
-31 14 -17 6 5 20 11 31 13 10 1 24 6 29 9 6 4 15 4 20 0 23 -16 11 -32 -39
-57 -29 -14 -62 -35 -74 -45 -11 -10 -22 -17 -24 -14 -3 2 -11 -7 -18 -21 -7
-14 -17 -25 -21 -25 -6 0 -20 -43 -24 -75 -2 -13 15 -46 31 -62 20 -20 82 -16
93 6 11 20 51 35 51 19 0 -5 5 -6 10 -3 6 3 10 -1 10 -9 0 -8 -4 -17 -9 -20
-5 -4 -8 -13 -7 -21 2 -17 89 -105 104 -105 5 0 12 -6 15 -12 4 -13 180 -138
193 -138 3 0 19 -9 35 -21 16 -11 29 -17 29 -13 0 3 6 2 13 -4 6 -5 32 -13 57
-17 72 -10 73 -10 113 -24 52 -18 82 -34 86 -46 3 -12 -39 -24 -54 -16 -14 7
-41 10 -109 11 -54 1 -63 -2 -88 -29 -15 -16 -28 -35 -28 -40 0 -6 -5 -11 -12
-11 -6 0 -9 -3 -5 -6 3 -3 -5 -23 -18 -44 -13 -21 -22 -40 -19 -42 8 -8 -75
-88 -91 -88 -17 0 -119 -58 -123 -71 -2 -5 -12 -9 -21 -9 -10 0 -26 -9 -36
-20 -10 -11 -22 -17 -26 -14 -5 3 -9 1 -9 -5 0 -5 -10 -8 -22 -5 -71 16 -94 7
-163 -61 -36 -36 -78 -70 -92 -76 -28 -10 -87 -3 -78 10 5 10 -39 31 -65 31
-25 0 -63 -38 -145 -145 -38 -49 -89 -111 -113 -137 -24 -25 -42 -48 -40 -50
5 -6 -27 -36 -34 -32 -4 2 -9 -4 -12 -13 -3 -10 -17 -30 -31 -45 -59 -64 -76
-120 -53 -175 6 -15 11 -31 10 -35 -1 -5 3 -8 9 -8 5 0 7 -4 4 -10 -3 -5 -1
-10 5 -10 7 0 21 -11 32 -25 24 -31 109 -71 176 -83 76 -14 132 -8 347 33 51
9 209 67 226 81 8 8 20 14 26 14 14 0 134 78 156 101 10 11 22 17 28 14 5 -4
9 0 9 8 0 7 10 19 23 26 12 8 42 37 67 66 25 30 51 54 59 54 8 1 12 4 8 7 -5
5 50 82 74 104 5 5 43 82 44 90 0 3 3 10 6 15 9 14 43 128 41 137 -1 4 7 6 18
5 11 -1 20 -5 20 -9 0 -15 27 4 40 27 7 13 17 22 21 20 4 -3 10 4 14 15 4 11
11 18 16 15 5 -4 9 -1 9 5 0 6 11 15 25 22 13 6 22 15 19 19 -3 5 2 9 10 9 9
0 16 5 16 10 0 6 7 10 15 10 9 0 18 7 21 15 4 8 10 12 15 9 5 -3 9 0 9 5 0 6
7 11 15 11 8 0 15 5 15 10 0 6 7 10 15 10 8 0 15 5 15 10 0 6 6 10 13 10 7 0
19 6 25 13 7 6 16 12 20 13 15 1 62 28 62 35 0 12 127 -24 215 -62 22 -9 157
-49 186 -54 26 -5 74 -32 72 -40 -5 -23 -50 -27 -103 -10 -16 5 -20 2 -21 -17
-1 -22 1 -61 4 -83 1 -5 -5 -9 -13 -8 -9 2 -51 -15 -95 -37 -44 -22 -85 -40
-92 -40 -6 0 -15 -10 -18 -22 -15 -46 108 -101 225 -100 60 0 184 22 255 46 6
2 15 4 20 5 6 1 20 9 33 17 12 8 22 12 22 9 0 -8 133 61 185 95 22 15 49 30
60 34 14 5 16 9 7 15 -25 15 10 40 61 42 26 2 47 7 47 11 0 5 4 7 8 4 5 -3 18
3 30 14 17 16 22 17 32 5 19 -23 94 -33 231 -29 282 7 478 36 523 77 14 13 26
30 26 37 0 8 6 10 18 5 38 -16 72 -23 89 -20 10 2 24 4 32 4 8 1 12 4 8 7 -3
4 14 27 40 51 30 30 49 41 55 35 7 -7 19 -3 36 13 14 13 29 22 34 19 5 -3 7 0
6 7 -4 17 39 20 46 4 5 -15 -15 -46 -80 -121 -28 -33 -69 -80 -92 -106 -22
-26 -43 -44 -46 -41 -3 4 -6 2 -6 -4 0 -6 -39 -50 -86 -99 -47 -49 -105 -110
-130 -136 -24 -26 -44 -45 -44 -43 0 2 -70 -65 -155 -150 -85 -85 -155 -160
-155 -166 0 -7 -3 -10 -6 -6 -7 7 -54 -41 -54 -55 0 -5 -6 -6 -12 -2 -7 4 -10
4 -6 -1 4 -4 3 -14 -3 -21 -9 -12 -9 -72 1 -119 8 -37 -32 -91 -118 -161 -30
-24 -52 -44 -50 -44 3 0 -15 -20 -38 -44 -74 -78 -94 -122 -100 -223 l-5 -88
20 23 c29 34 43 19 24 -26 -8 -20 -18 -39 -22 -42 -3 -3 -7 -10 -8 -15 -1 -6
-15 -40 -32 -77 -17 -36 -31 -71 -31 -77 0 -6 -4 -11 -8 -11 -5 0 -9 -6 -10
-12 0 -7 -17 -60 -37 -117 -40 -114 -41 -151 -2 -187 12 -11 37 -26 56 -32 45
-16 141 -16 141 0 0 6 3 9 6 5 4 -3 21 0 39 8 19 7 36 11 39 7 3 -3 6 0 6 6 0
7 7 12 15 12 28 0 200 92 252 135 7 5 24 19 39 30 14 11 39 32 55 47 16 16 34
28 39 28 6 0 10 4 10 9 0 5 13 24 30 43 16 18 30 36 30 40 1 4 15 22 33 40 51
53 96 108 89 108 -4 0 -2 4 4 8 7 4 49 52 94 107 45 55 86 102 91 103 5 2 9
10 9 18 0 9 5 12 10 9 6 -3 10 -1 10 4 0 6 8 19 18 30 9 10 42 47 72 81 130
150 106 123 253 279 42 45 77 83 77 85 0 9 110 113 114 108 3 -3 6 -1 6 5 0 6
69 80 153 164 156 158 175 179 217 239 13 19 30 41 37 48 7 7 13 17 13 21 0 4
9 18 20 31 11 12 17 26 15 30 -3 4 2 11 11 14 9 4 14 9 11 13 -4 3 2 17 13 31
11 13 17 28 14 33 -3 5 -1 9 4 9 5 0 12 8 15 18 3 9 22 56 41 104 20 48 36 97
36 108 0 11 5 20 12 20 6 0 9 3 6 6 -8 8 11 75 25 88 20 19 64 5 51 -16 -4 -7
-2 -8 4 -4 7 4 12 3 12 -3 0 -6 12 -4 27 4 15 8 30 12 35 9 4 -3 8 0 8 6 0 7
7 10 15 6 8 -3 15 -1 15 5 0 6 9 8 19 4 11 -3 22 -1 26 5 4 6 14 9 22 6 9 -4
11 -2 7 6 -5 7 1 9 20 6 23 -5 25 -3 14 11 -7 9 -8 13 -4 9 5 -4 16 -2 24 5
13 10 14 9 8 -2 -5 -8 2 -6 19 5 31 20 48 26 87 28 14 0 24 4 22 7 -2 4 6 10
19 14 12 4 24 8 27 10 3 1 14 6 25 10 11 5 25 16 32 24 7 9 13 13 13 8 0 -4
16 9 35 29 28 28 36 33 41 20 3 -9 14 -14 24 -13 23 4 130 57 148 74 6 6 21
15 32 18 11 3 20 11 20 17 0 6 3 9 6 5 6 -5 15 0 49 31 8 7 15 11 15 7 0 -5
19 8 125 88 16 12 40 32 53 45 13 12 25 22 28 22 3 0 19 14 34 30 15 17 33 30
39 30 6 0 11 6 11 14 0 8 4 16 8 18 5 2 30 30 55 63 26 33 52 65 57 72 6 7 10
17 10 23 0 5 4 10 8 10 12 0 53 85 50 102 -2 7 -7 16 -12 19 -4 4 2 17 14 29
12 12 25 18 29 14 10 -14 31 -15 31 -2 0 6 6 19 13 27 24 28 51 134 53 210 2
47 7 77 15 82 15 9 42 -9 34 -21 -3 -5 -1 -11 3 -14 5 -3 9 -24 10 -47 1 -23
4 -44 5 -46 7 -6 67 19 67 28 0 5 5 9 11 9 6 0 16 6 24 13 14 14 59 99 56 107
0 3 20 6 46 6 30 1 52 -4 62 -14 12 -11 13 -16 3 -20 -18 -6 -15 -42 4 -42 8
0 21 -6 27 -13 15 -16 21 -40 7 -32 -21 13 -9 -33 15 -61 32 -36 110 -190 120
-235 4 -19 10 -38 13 -44 4 -5 7 -14 9 -20 39 -182 47 -255 47 -435 0 -108 -5
-192 -18 -337 -4 -40 21 -92 50 -105 13 -6 28 -25 35 -42 13 -36 24 -241 13
-265 -4 -9 -9 -28 -11 -42 -12 -81 125 -62 261 36 27 19 45 35 41 35 -5 0 2 8
15 17 14 9 31 25 38 35 7 9 19 23 27 31 53 54 144 229 195 377 33 96 57 130
92 130 11 0 17 4 14 9 -3 5 1 12 10 15 20 8 42 62 48 123 2 27 8 76 13 109 4
32 8 140 8 239 0 168 -9 247 -35 310 -4 11 -13 39 -20 63 -7 23 -16 42 -21 42
-4 0 -10 12 -14 27 -3 15 -10 30 -13 33 -4 3 -17 26 -30 53 -13 26 -28 47 -33
47 -6 0 -7 5 -4 10 3 6 2 10 -3 10 -5 0 -15 12 -23 27 -15 29 -36 55 -86 108
-17 18 -29 36 -26 38 2 3 -4 8 -15 11 -11 4 -37 24 -58 44 -40 39 -159 115
-181 115 -7 0 -13 4 -13 9 0 4 -9 8 -19 8 -11 0 -22 4 -25 9 -5 8 -112 42
-146 46 -8 1 -33 5 -55 9 -147 23 -284 13 -425 -31 -47 -15 -89 -25 -95 -24
-5 1 -7 0 -4 -4 4 -3 -5 -18 -20 -34 -14 -15 -37 -41 -50 -58 -23 -30 -71 -51
-71 -31 0 5 -4 7 -9 4 -13 -9 -22 36 -9 51 6 7 7 13 2 13 -5 0 -4 4 1 8 6 4
30 31 53 61 23 30 59 68 79 85 20 17 45 39 55 49 10 9 23 17 28 17 6 0 10 5
10 12 0 6 3 8 7 5 3 -4 17 3 30 15 13 12 23 17 23 12 0 -5 4 -4 8 1 4 6 27 20
52 32 80 38 145 67 155 69 22 4 135 71 164 97 17 15 31 25 31 22 0 -3 21 18
47 47 25 29 50 55 55 56 4 2 8 8 8 13 0 8 26 42 58 75 7 8 11 14 9 14 -3 0 13
18 35 40 21 23 36 45 34 49 -3 5 -38 9 -77 9 -83 0 -100 11 -69 40 43 40 243
47 287 10 31 -25 36 12 18 143 -17 122 -54 224 -87 235 -10 3 -18 12 -18 20 0
8 5 12 11 8 6 -3 3 8 -5 25 -21 39 -93 111 -131 131 -17 8 -32 18 -35 21 -13
15 -78 29 -129 28 -31 0 -92 -9 -136 -19z"/>
<path d="M3710 10421 c-16 -6 -18 -16 -7 -41 16 -37 58 -222 73 -320 4 -25 7
-106 8 -181 1 -80 5 -142 12 -150 17 -23 61 -155 94 -281 40 -158 57 -270 64
-415 6 -110 54 -255 99 -298 17 -17 57 -60 87 -95 30 -36 58 -67 61 -70 3 -3
26 -35 50 -72 33 -49 49 -64 59 -58 7 4 19 6 27 3 7 -3 13 -2 13 3 0 11 -78
112 -137 176 -40 43 -53 66 -54 90 -1 18 -3 42 -4 53 -7 61 -16 123 -20 145
-8 37 -12 60 -20 110 -4 25 -9 54 -11 65 -2 10 -6 37 -10 59 -3 22 -7 43 -9
46 -2 4 -7 29 -11 56 -3 27 -10 59 -15 72 -5 12 -8 26 -8 30 1 4 0 9 -1 12 -1
3 -3 115 -5 250 -2 135 -6 261 -8 280 -3 19 -8 60 -11 90 -28 267 -110 404
-263 438 -21 5 -45 6 -53 3z"/>
<path d="M12609 10426 c-2 -2 -23 -6 -46 -10 -24 -3 -56 -12 -71 -20 -95 -49
-176 -204 -188 -360 -1 -22 -4 -41 -4 -41 -2 0 -6 -29 -15 -130 -10 -113 -14
-370 -6 -406 4 -19 4 -47 -1 -64 -4 -16 -10 -48 -14 -70 -3 -22 -7 -42 -9 -45
-2 -3 -6 -23 -9 -45 -6 -40 -12 -69 -22 -115 -3 -14 -7 -34 -9 -45 -1 -11 -5
-36 -8 -55 -30 -183 -37 -233 -42 -283 -4 -54 -9 -64 -55 -114 -28 -30 -71
-81 -95 -113 l-45 -58 29 -10 c28 -10 30 -8 85 71 56 82 82 114 181 218 41 44
54 66 60 100 4 24 14 58 23 74 8 17 17 59 18 95 4 85 13 188 20 225 3 17 7 41
9 55 2 14 4 25 5 25 1 0 4 12 5 26 2 14 11 54 20 90 9 35 18 71 20 79 6 26 42
132 69 204 15 39 27 79 26 90 0 141 1 216 4 241 10 76 17 117 26 157 6 24 13
57 16 73 3 17 9 37 14 45 4 8 10 32 14 53 4 21 10 45 13 53 5 13 -7 20 -18 10z"/>
<path d="M4083 9408 c4 -23 10 -56 13 -73 4 -16 8 -40 8 -52 1 -13 5 -23 9
-23 5 0 6 -3 4 -7 -3 -5 1 -37 9 -73 7 -36 16 -83 19 -105 3 -22 7 -47 9 -55
26 -134 35 -199 41 -280 2 -38 11 -53 56 -103 29 -32 60 -68 68 -80 8 -12 21
-28 28 -35 7 -7 20 -26 29 -41 15 -25 23 -29 68 -29 28 0 77 -9 109 -20 31
-11 57 -16 57 -11 0 4 -7 34 -15 65 -22 84 -75 192 -123 252 -35 43 -45 65
-56 125 -22 111 -58 206 -158 414 -34 71 -83 125 -140 154 l-41 21 6 -44z"/>
<path d="M12173 9411 c-59 -43 -84 -80 -152 -227 -69 -150 -106 -258 -116
-334 -5 -41 -15 -64 -45 -99 -64 -78 -124 -206 -143 -308 l-6 -32 42 15 c40
15 91 24 150 28 19 1 34 12 54 41 24 36 96 124 148 181 13 14 21 39 23 70 3
45 9 89 12 89 1 0 3 20 5 45 2 25 7 56 10 70 3 14 12 66 21 115 8 50 22 122
29 160 8 39 17 84 20 100 4 27 8 47 15 80 9 43 -13 45 -67 6z"/>
<path d="M5700 2425 l0 -95 140 0 140 0 0 -280 0 -280 95 0 95 0 0 280 0 280
140 0 140 0 0 95 0 95 -375 0 -375 0 0 -95z"/>
<path d="M6550 2145 l0 -375 283 0 282 0 93 93 92 92 0 283 0 282 -94 0 -95 0
0 -235 1 -235 -46 -46 -45 -47 -136 0 c-74 0 -138 3 -142 6 -3 4 -6 131 -5
282 l1 275 -95 0 -94 0 0 -375z"/>
<path d="M7390 2145 l0 -375 95 0 96 0 -2 133 c-1 81 2 131 8 130 5 -1 151
-144 325 -317 174 -174 317 -316 319 -316 2 0 4 62 3 139 l0 138 -187 188
-187 187 140 141 140 140 0 93 0 94 -375 0 -375 0 0 -375z m330 50 c-74 -74
-136 -132 -138 -130 -3 2 -4 29 -4 60 0 30 1 89 1 130 l1 75 137 0 138 0 -135
-135z"/>
<path d="M8230 2425 l0 -95 140 0 140 0 0 -280 0 -280 95 0 95 0 0 280 0 280
140 0 140 0 0 95 0 95 -375 0 -375 0 0 -95z"/>
<path d="M9080 2145 l0 -375 329 0 328 0 1 78 c1 121 25 110 -236 109 l-227
-1 -3 282 -2 282 -95 0 -95 0 0 -375z"/>
<path d="M9830 2425 l0 -95 375 0 375 0 0 95 0 95 -375 0 -375 0 0 -95z"/>
<path d="M9830 2144 l0 -94 375 0 375 0 0 94 0 94 -375 0 -375 0 0 -94z"/>
<path d="M9830 1863 l0 -93 375 0 375 0 0 93 0 94 -375 0 -375 0 0 -94z"/>
<path d="M3880 1082 c-55 -3 -55 -3 -147 -95 l-93 -92 0 -137 0 -138 33 -1
c17 -1 139 -1 270 -1 130 0 237 -4 237 -8 0 -4 -19 -25 -42 -47 l-43 -39 -195
2 c-114 1 -203 -3 -214 -9 -20 -10 -176 -163 -176 -172 0 -3 154 -5 343 -5
l342 0 93 93 92 92 0 137 c0 100 -3 137 -12 140 -7 2 -132 3 -276 2 l-264 -1
46 46 46 46 208 0 208 1 92 92 91 92 -47 0 c-420 4 -546 5 -592 2z"/>
<path d="M4948 1082 l-28 -3 0 -462 0 -462 255 255 255 255 -70 70 -70 70 -93
-93 -92 -92 1 128 c1 70 2 132 3 137 1 7 66 10 180 10 152 0 180 -2 183 -15 2
-8 4 -133 3 -277 l0 -263 92 0 92 0 3 328 c2 180 1 347 -2 371 l-5 43 -340 2
c-187 0 -352 0 -367 -2z"/>
<path d="M6268 1082 l-68 -3 0 -506 c0 -469 1 -504 17 -492 9 8 175 173 370
368 l353 353 0 134 c0 74 -2 134 -6 134 -3 0 -126 -122 -275 -270 -148 -149
-270 -267 -270 -263 -1 4 -2 127 -3 272 l-1 265 -25 5 c-14 3 -55 5 -92 3z"/>
<path d="M7508 1082 l-28 -3 0 -370 0 -369 93 0 93 0 0 369 -1 370 -65 3 c-36
2 -77 2 -92 0z"/>
<path d="M8228 1082 l-28 -3 0 -370 0 -369 370 0 370 0 0 373 0 372 -343 0
c-188 0 -354 -1 -369 -3z m517 -191 c12 -1 15 -353 4 -361 -6 -4 -315 -5 -354
-1 -8 1 -13 265 -6 351 1 13 25 15 174 14 94 -1 177 -2 182 -3z"/>
<path d="M9533 1082 l-53 -3 0 -370 0 -369 278 0 278 0 95 98 94 97 -3 271 -3
272 -22 3 c-12 2 -54 2 -92 -1 l-70 -5 0 -225 1 -225 -47 -50 -47 -49 -136 -1
c-114 0 -136 2 -137 15 -1 8 -2 132 -3 275 l-1 260 -40 5 c-22 3 -64 4 -92 2z"/>
<path d="M10788 1082 l-28 -3 0 -370 0 -370 93 3 92 3 0 133 c0 72 2 132 5
132 3 0 142 -138 309 -305 167 -168 310 -305 316 -305 19 0 21 15 20 137 l-2
111 -181 182 c-100 100 -182 185 -182 189 0 3 61 67 135 141 l135 135 0 95 0
95 -343 0 c-188 0 -354 -1 -369 -3z m422 -192 c0 -6 -253 -260 -260 -260 -4 0
-5 240 -1 260 1 7 261 7 261 0z"/>
<path d="M12275 1082 l-60 -3 -92 -92 -93 -92 0 -137 c0 -103 3 -138 13 -139
6 0 130 -1 274 -1 l263 -1 -33 -37 c-17 -21 -43 -42 -57 -47 -14 -5 -112 -9
-219 -8 l-194 1 -93 -93 -93 -93 347 0 347 0 93 92 93 92 -3 140 -3 140 -273
0 -273 -1 45 46 46 47 207 -1 208 0 88 89 c48 49 86 91 83 93 -5 5 -535 9
-621 5z"/>
</g>
</svg>
